# xmcd
# 
# Track frame offsets:
#     150
#     18128
#     34714
#     49284
#     64624
#     81117
#     97499
#     112384
#     130085
#     145410
# 
# Disc length: 2162
# 
# Revision: 0
# Processed by: cddbd v1.5.2PL0 Copyright (c) Steve Scherf et al.
# Submitted via: BonkEnc v1.0.6
# 
DISCID=8f08700a
DTITLE=various artist - HMG Country Vol. 30
DYEAR=2005
DGENRE=Country
TTITLE0=rich mcCready - wish i was in wichita
TTITLE1=steve zuwala - so help me god
TTITLE2=deeAnn sanders - nothing like a good rain
TTITLE3=j gordon - NASA rover
TTITLE4=rebecca lou - everyday heroes
TTITLE5=chuck campbell - hills of alabama
TTITLE6=cooky - real bad mood
TTITLE7=nannette vaughan - meet me with love
TTITLE8=blazing country - that left one
TTITLE9=liz weak - through young eyes
EXTD=
EXTT0=
EXTT1=
EXTT2=
EXTT3=
EXTT4=
EXTT5=
EXTT6=
EXTT7=
EXTT8=
EXTT9=
PLAYORDER=
